<?xml version="1.0" encoding="UTF-8" standalone="no"?>
<!DOCTYPE svg PUBLIC "-//W3C//DTD SVG 1.1//EN" "http://www.w3.org/Graphics/SVG/1.1/DTD/svg11.dtd">
<svg xmlns="http://www.w3.org/2000/svg" version="1.1" viewBox="0.00 0.00 168.00 69.00">
<path fill="#125e96" d="
  M 62.51 19.72
  Q 61.44 21.63 59.51 22.76
  A 1.09 1.08 43.2 0 1 58.47 22.79
  C 54.71 20.88 51.98 19.05 47.49 21.47
  C 41.11 24.91 41.54 34.18 48.37 36.81
  Q 52.22 38.29 55.53 36.71
  A 2.78 2.77 -16.6 0 0 57.08 33.85
  L 57.07 33.77
  A 1.70 1.70 0.0 0 0 54.83 32.38
  Q 52.93 33.03 52.12 32.87
  A 1.03 1.02 -2.8 0 1 51.34 32.17
  Q 50.79 30.44 50.85 28.58
  A 1.66 1.65 0.7 0 1 52.51 26.97
  L 62.25 26.97
  A 0.69 0.69 0.0 0 1 62.94 27.67
  Q 62.86 33.46 63.04 35.76
  Q 63.36 39.69 59.98 41.49
  Q 58.10 42.50 57.93 42.61
  A 2.10 2.10 0.0 0 1 56.67 43.03
  L 46.45 43.06
  A 2.27 2.26 59.2 0 1 45.36 42.78
  Q 38.39 38.88 37.17 32.96
  Q 34.70 21.02 45.35 15.34
  A 2.62 2.58 30.6 0 1 46.64 15.02
  Q 48.56 15.05 50.14 14.54
  A 4.72 4.71 -49.4 0 1 52.34 14.37
  C 56.99 15.09 59.63 15.36 62.43 18.80
  A 0.83 0.82 -50.2 0 1 62.51 19.72
  Z
"/>
<path fill="#1593ad" d="
  M 86.88 24.99
  Q 86.90 24.95 86.89 24.73
  A 0.69 0.69 0.0 0 0 86.56 24.18
  Q 84.90 23.11 84.96 21.40
  A 1.51 1.46 -24.1 0 1 85.33 20.48
  Q 88.39 17.10 89.74 15.76
  Q 90.54 14.97 93.26 14.47
  A 0.53 0.53 0.0 0 1 93.81 14.74
  Q 93.98 15.05 93.94 15.66
  A 0.31 0.31 0.0 0 1 93.60 15.95
  Q 93.45 15.94 93.31 16.08
  A 0.38 0.38 0.0 0 0 93.20 16.32
  Q 93.13 18.53 92.53 19.73
  A 1.40 1.37 49.8 0 0 92.45 20.79
  L 94.12 25.81
  A 4.58 4.53 33.3 0 1 94.32 26.75
  Q 94.32 26.78 94.22 31.52
  Q 94.19 33.29 92.99 34.94
  Q 89.58 39.66 88.13 40.40
  Q 84.78 42.13 84.14 42.64
  A 1.46 1.45 -66.3 0 1 83.15 43.03
  L 78.06 43.07
  A 0.97 0.94 -20.9 0 1 77.36 42.77
  Q 75.43 40.72 73.19 42.54
  Q 69.76 45.33 67.48 45.20
  A 0.62 0.61 13.5 0 1 66.95 44.34
  L 68.91 39.94
  A 0.90 0.88 46.4 0 0 68.92 39.25
  Q 67.35 35.36 66.20 32.04
  Q 65.63 30.38 66.11 24.15
  A 2.09 1.97 -28.2 0 1 66.41 23.25
  L 68.33 20.14
  A 0.80 0.75 88.4 0 1 68.50 19.95
  L 73.33 16.11
  A 2.20 2.01 10.8 0 1 73.72 15.87
  Q 78.69 13.62 84.17 15.07
  A 0.59 0.58 -73.5 0 1 84.57 15.82
  Q 82.97 20.79 77.50 21.17
  A 2.01 1.95 25.8 0 0 76.60 21.47
  Q 73.92 23.11 72.78 25.71
  Q 71.56 28.48 72.61 31.27
  C 74.40 36.06 80.29 39.08 84.77 35.55
  Q 89.04 32.20 87.58 26.16
  Q 87.43 25.55 87.08 25.45
  A 0.33 0.33 0.0 0 1 86.88 24.99
  Z
"/>
<path fill="#0e4385" d="
  M 22.29 23.83
  A 0.19 0.18 45.8 0 0 21.95 23.82
  L 13.96 41.77
  A 2.07 2.06 -77.8 0 1 12.08 42.99
  L 8.29 42.99
  A 1.00 0.99 12.1 0 1 7.38 41.59
  L 19.02 15.43
  A 0.75 0.73 -77.4 0 1 19.69 14.99
  L 24.71 14.99
  A 0.89 0.89 0.0 0 1 25.53 15.53
  L 37.08 41.96
  A 0.73 0.73 0.0 0 1 36.41 42.98
  L 31.26 42.98
  A 1.14 1.14 0.0 0 1 30.22 42.30
  L 28.47 38.30
  A 2.15 2.14 -11.7 0 0 26.50 37.01
  L 20.42 37.01
  A 1.35 1.34 6.6 0 1 19.11 35.36
  L 19.54 33.57
  A 2.25 2.24 -77.7 0 1 22.17 31.88
  Q 24.56 32.35 25.03 31.52
  A 1.34 1.32 45.9 0 0 25.04 30.45
  L 22.29 23.83
  Z
"/>
<path fill="#22c3b6" d="
  M 116.80 34.81
  C 117.90 35.33 117.77 36.47 118.51 37.08
  Q 120.10 38.38 121.16 40.86
  A 1.10 1.10 0.0 0 1 120.15 42.39
  L 116.06 42.39
  A 1.01 0.99 68.5 0 1 115.32 42.06
  L 111.48 37.87
  A 1.10 1.09 15.0 0 1 111.27 37.51
  Q 109.58 33.06 105.06 34.35
  A 1.40 1.39 -8.0 0 0 104.05 35.69
  L 104.05 42.38
  A 0.52 0.52 0.0 0 1 103.21 42.79
  Q 102.23 42.02 99.68 42.45
  A 1.47 1.47 0.0 0 1 97.96 41.00
  L 97.96 15.58
  A 0.57 0.56 0.0 0 1 98.53 15.02
  L 111.64 15.04
  A 1.17 0.80 -29.0 0 1 111.85 15.06
  L 115.50 15.93
  A 2.43 2.37 66.7 0 1 116.25 16.24
  Q 124.22 21.14 120.00 30.19
  Q 118.90 32.56 116.70 33.00
  A 1.04 0.86 47.4 0 0 116.80 34.81
  Z
  M 103.99 22.19
  L 104.03 27.91
  A 1.17 1.17 0.0 0 0 105.21 29.07
  L 110.68 29.03
  A 4.46 3.83 -0.4 0 0 115.11 25.17
  L 115.11 24.77
  A 4.46 3.83 -0.4 0 0 110.62 20.97
  L 105.15 21.01
  A 1.17 1.17 0.0 0 0 103.99 22.19
  Z
"/>
<path fill="#48ea94" d="
  M 134.77 36.46
  Q 134.93 33.21 136.74 31.75
  A 1.04 1.04 0.0 0 1 137.81 31.60
  Q 139.08 32.13 140.72 31.72
  A 0.58 0.58 0.0 0 0 141.15 31.08
  Q 140.92 29.47 140.31 28.74
  A 0.90 0.85 16.6 0 1 140.17 28.50
  L 138.39 23.85
  A 0.41 0.41 0.0 0 0 137.63 23.82
  L 130.03 40.89
  A 2.33 2.31 11.9 0 1 127.91 42.26
  L 125.00 42.26
  A 1.16 1.16 0.0 0 1 123.94 40.64
  L 128.89 29.34
  A 0.30 0.28 60.7 0 0 128.92 29.21
  Q 128.90 28.69 129.22 28.41
  A 1.05 0.14 -39.6 0 0 129.89 27.69
  Q 129.83 27.37 129.88 27.14
  A 1.99 1.90 -23.0 0 1 130.20 26.40
  Q 131.41 24.72 132.03 22.09
  A 2.67 2.53 65.3 0 1 132.20 21.59
  L 134.97 15.65
  A 0.87 0.87 0.0 0 1 135.76 15.14
  L 140.28 15.14
  A 1.21 1.20 -11.4 0 1 141.39 15.87
  L 152.43 41.12
  A 0.85 0.84 -11.6 0 1 151.65 42.30
  L 147.33 42.30
  A 1.29 1.27 -11.4 0 1 146.15 41.53
  L 144.61 38.01
  A 1.75 1.73 78.0 0 0 143.02 36.97
  L 135.26 36.97
  A 0.49 0.49 0.0 0 1 134.77 36.46
  Z
"/>
</svg>
